<svg width="25" height="25" viewBox="0 0 25 25" fill="none" xmlns="http://www.w3.org/2000/svg">
<g clip-path="url(#clip0_31_646)">
<path d="M23.9563 7.49229C23.2875 5.96436 22.3335 4.60371 21.1208 3.44839C20.9642 3.29922 20.7165 3.30518 20.5673 3.46182C20.4182 3.61836 20.4242 3.86611 20.5807 4.01519C22.9256 6.24912 24.2171 9.26245 24.2171 12.5C24.2171 18.9608 18.9608 24.2171 12.5 24.2171C6.03906 24.2171 0.782861 18.9608 0.782861 12.5C0.782861 6.03916 6.03916 0.782861 12.5 0.782861C14.8602 0.782861 17.1353 1.4814 19.0792 2.80283C19.258 2.92437 19.5014 2.87793 19.623 2.69922C19.7445 2.52041 19.6981 2.27695 19.5193 2.15542C17.445 0.745361 15.0178 0 12.5 0C9.16113 0 6.02212 1.3002 3.66118 3.66118C1.30024 6.02212 0 9.16113 0 12.5C0 15.8389 1.30024 18.9779 3.66118 21.3388C6.02212 23.6998 9.16113 25 12.5 25C15.8389 25 18.9779 23.6998 21.3388 21.3388C23.6998 18.9779 25 15.8389 25 12.5C25 10.7592 24.6488 9.07432 23.9563 7.49229Z" fill="white"/>
<path d="M18.1803 5.3003L10.6522 8.80475C10.4562 8.89596 10.3713 9.12887 10.4626 9.32486C10.5538 9.52086 10.7867 9.60587 10.9826 9.51456L15.6264 7.35275L13.3688 9.18043L8.18776 13.3746L5.35397 12.1347L9.32497 10.2862C9.52096 10.1949 9.60587 9.96207 9.51461 9.76608C9.4234 9.57008 9.19044 9.48507 8.99459 9.57638L4.72018 11.5662C4.49293 11.672 4.34948 11.9034 4.35524 12.1539C4.36085 12.399 4.509 12.6196 4.73356 12.7178L7.89772 14.1021L8.82443 19.6623C8.88146 20.0061 9.34699 20.104 9.53795 19.8125L12.1667 15.8002L17.1379 18.1201C17.5362 18.3062 18.0102 18.0219 18.0359 17.5847L18.7362 5.67799C18.737 5.66695 18.7369 5.65563 18.7367 5.64454C18.7289 5.36744 18.4312 5.18429 18.1803 5.3003ZM9.27824 17.6235L8.67257 13.9893L14.8429 8.99425L10.1204 14.2892C10.0779 14.3369 10.0464 14.3968 10.0317 14.4591L9.27824 17.6235ZM10.1098 17.5112L10.6821 15.1075L11.4499 15.4658L10.1098 17.5112ZM11.8834 14.8042L11.0549 14.4176L15.1305 9.84796L14.541 10.7478L11.8834 14.8042ZM17.2674 17.3168L12.6002 15.1387L17.8686 7.09747L17.2674 17.3168Z" fill="white"/>
</g>
<defs>
<clipPath id="clip0_31_646">
<rect width="25" height="25" fill="white"/>
</clipPath>
</defs>
</svg>
