<svg width="24" height="16" viewBox="0 0 24 16" fill="none" xmlns="http://www.w3.org/2000/svg">
<path fill-rule="evenodd" clip-rule="evenodd" d="M0.272117 0.347213C0.390867 0.206313 0.565742 0.125 0.750004 0.125H5.15014C5.45628 0.125 5.71735 0.34675 5.7669 0.648837C5.94788 1.75229 6.54302 3.8828 7.94192 5.8835C8.1397 6.1665 8.07072 6.55612 7.78783 6.75387C7.50494 6.95175 7.11528 6.88275 6.91748 6.59988C5.5816 4.68925 4.91663 2.68019 4.63372 1.375H1.5215C2.05765 3.54749 3.52815 7.2375 5.746 10.0247C6.96172 11.5526 8.28212 12.5329 9.42419 13.1223C10.5848 13.7213 11.518 13.8956 11.953 13.8731C11.9689 13.8724 11.9848 13.8721 12.0008 13.8725C12.2031 13.8775 12.4491 13.822 12.6319 13.6731C12.7908 13.5437 12.9836 13.2785 12.9836 12.6825V10.7815C12.9836 10.4154 13.1271 10.0455 13.4335 9.80825C13.757 9.55762 14.1799 9.52175 14.5581 9.697C14.9598 9.88313 15.4189 10.121 15.6993 10.272C15.7151 10.2806 15.7306 10.2898 15.7456 10.2996C17.167 11.232 18.5364 12.7295 19.4045 13.8415C19.4163 13.8565 19.4276 13.8644 19.4351 13.8682C19.4425 13.8719 19.4469 13.8723 19.449 13.8723H22.5936C22.6018 13.8723 22.6055 13.8711 22.6063 13.871C22.6071 13.8706 22.6075 13.8705 22.6081 13.8701C22.6096 13.869 22.6151 13.8645 22.6198 13.8542C22.6244 13.844 22.6258 13.8334 22.6246 13.8245C22.6239 13.8181 22.6214 13.8055 22.6058 13.7866C21.8251 12.8408 20.7871 11.68 19.8828 10.6685C19.5618 10.3095 19.2576 9.96938 18.9878 9.66438C18.3636 8.95888 18.3184 7.92362 18.799 7.149C19.8523 5.45125 21.2384 3.01458 21.666 1.375H19.1131C19.1115 1.375 19.1035 1.37501 19.0886 1.38549C19.0726 1.39674 19.0516 1.41878 19.036 1.45418C18.1454 3.46394 16.2681 5.9445 14.902 7.19075C14.5199 7.53925 14.0061 7.59488 13.59 7.35413C13.2009 7.129 12.9836 6.69863 12.9836 6.24175V1.375H9.64475C9.68963 1.4583 9.73363 1.54374 9.77588 1.63077C10.0293 2.15179 10.2608 2.8006 10.2608 3.42686C10.2608 3.69456 10.2629 4.09969 10.2655 4.57275C10.2721 5.808 10.2813 7.50662 10.2605 8.43163C10.2529 8.77675 9.96675 9.05025 9.62175 9.0425C9.27662 9.03475 9.00313 8.74875 9.01087 8.40363C9.03119 7.49738 9.02223 5.84037 9.01558 4.60862C9.01297 4.12571 9.01072 3.70815 9.01072 3.42686C9.01072 3.07766 8.87189 2.63002 8.6518 2.17746C8.4359 1.73351 8.17569 1.35356 8.00684 1.15569C7.84857 0.970213 7.81262 0.709625 7.91475 0.488212C8.01688 0.2668 8.23845 0.125 8.48228 0.125H13.6086C13.9539 0.125 14.2336 0.404825 14.2336 0.75V6.10388C15.467 4.91613 17.115 2.70379 17.8931 0.94775C18.0971 0.487425 18.5501 0.125 19.1131 0.125H21.6739C22.4495 0.125 23.0948 0.840663 22.8805 1.67136C22.4026 3.52456 20.9034 6.128 19.8611 7.80788C19.652 8.145 19.6898 8.57137 19.924 8.83612C20.1843 9.13025 20.4814 9.46263 20.7976 9.81625C21.7061 10.8323 22.7719 12.0241 23.5699 12.991C24.2546 13.8208 23.7159 15.1223 22.5936 15.1223H19.449C19.0339 15.1223 18.6615 14.9209 18.4193 14.6108C17.5906 13.5493 16.33 12.1844 15.0824 11.3596C14.862 11.2413 14.5404 11.0745 14.2336 10.9264V12.6825C14.2336 13.5856 13.921 14.2354 13.4213 14.6424C12.9548 15.0222 12.4019 15.1281 11.994 15.1226C11.2603 15.1536 10.1129 14.8844 8.85092 14.233C7.55694 13.5652 6.097 12.4735 4.76787 10.8031C2.13324 7.492 0.506129 3.02145 0.134029 0.855838C0.102829 0.674225 0.153355 0.488113 0.272117 0.347213ZM14.2368 10.7516C14.2369 10.7517 14.2366 10.7525 14.236 10.754L14.2368 10.7516ZM14.0326 10.8311H14.0325H14.0326ZM14.2429 6.29463C14.2428 6.29463 14.2423 6.29387 14.2414 6.29225C14.2425 6.29375 14.243 6.2945 14.2429 6.29463Z" fill="white"/>
</svg>
