<svg width="90" height="90" viewBox="0 0 90 90" fill="none" xmlns="http://www.w3.org/2000/svg">
<g clip-path="url(#clip0_31_605)">
<path d="M45 90C69.8528 90 90 69.8528 90 45C90 20.1472 69.8528 0 45 0C20.1472 0 0 20.1472 0 45C0 69.8528 20.1472 90 45 90Z" fill="#F33052"/>
<path d="M32.4337 47.7283H36.0619V48.3837C36.0619 51.033 35.5781 52.7487 34.6106 53.5249C33.6431 54.3012 31.5056 54.6893 28.1925 54.6893C24.4322 54.6893 22.1203 54.0762 21.2541 52.8499C20.3878 51.618 19.9575 48.3387 19.9575 42.9949C19.9575 39.8505 20.5425 37.7833 21.7153 36.7933C22.8881 35.8033 25.3378 35.3083 29.07 35.3083C31.7869 35.3083 33.5981 35.7162 34.5122 36.529C35.4234 37.3446 35.8791 38.959 35.8791 41.3805L35.8931 41.8109H32.265V41.3243C32.265 40.0783 32.0316 39.2768 31.5619 38.928C31.0922 38.5793 30.0178 38.4049 28.3444 38.4049C26.1 38.4049 24.7556 38.6805 24.3028 39.2262C23.85 39.7746 23.625 41.403 23.625 44.1115C23.625 47.7593 23.8275 49.9165 24.2325 50.5858C24.6403 51.2552 25.9453 51.5899 28.1587 51.5899C29.9559 51.5899 31.1203 51.4071 31.6547 51.033C32.1891 50.6618 32.4562 49.8405 32.4562 48.5777L32.4337 47.7283Z" fill="white"/>
<path d="M52.4728 41.0289H48.9403C48.9234 40.8545 48.9122 40.7223 48.9122 40.6379C48.8306 39.5664 48.5944 38.8942 48.2034 38.6185C47.8125 38.3457 46.89 38.2079 45.4415 38.2079C43.7287 38.2079 42.6094 38.3654 42.0862 38.6804C41.5575 38.9954 41.2987 39.6648 41.2987 40.6773C41.2987 41.8782 41.5125 42.5982 41.94 42.8401C42.3675 43.0848 43.7822 43.2676 46.1812 43.3998C49.0219 43.5573 50.8556 43.9623 51.6909 44.6148C52.5206 45.2645 52.9369 46.6201 52.9369 48.6732C52.9369 51.2045 52.4475 52.8385 51.4715 53.5782C50.4928 54.3207 48.3412 54.6892 45.0112 54.6892C42.0159 54.6892 40.0275 54.3264 39.0459 53.6007C38.0644 52.8751 37.575 51.407 37.575 49.1907L37.5609 48.4932H41.0765L41.0906 48.901C41.0906 50.2314 41.324 51.0442 41.7881 51.3423C42.255 51.6376 43.5234 51.7867 45.599 51.7867C47.2134 51.7867 48.2456 51.6151 48.6984 51.2692C49.1428 50.926 49.3678 50.1301 49.3678 48.8842C49.3678 47.9617 49.1962 47.3485 48.8559 47.0476C48.5156 46.7467 47.7844 46.561 46.6594 46.4992L44.6625 46.3726C41.6503 46.1982 39.7209 45.7764 38.8856 45.1182C38.0475 44.4573 37.6284 43.0398 37.6284 40.8601C37.6284 38.6354 38.1347 37.156 39.1444 36.4164C40.1512 35.6739 42.1678 35.3054 45.1912 35.3054C48.06 35.3054 49.9865 35.6429 50.9822 36.3235C51.9806 37.0014 52.4756 38.3289 52.4756 40.3004V41.0289H52.4728Z" fill="white"/>
<path d="M69.5841 41.0289H66.0516C66.0319 40.8545 66.0234 40.7223 66.0234 40.6379C65.9419 39.5664 65.7028 38.8942 65.3119 38.6185C64.9209 38.3457 63.9984 38.2079 62.55 38.2079C60.84 38.2079 59.7178 38.3654 59.1947 38.6804C58.6716 38.9954 58.4072 39.6648 58.4072 40.6773C58.4072 41.8782 58.6209 42.5982 59.0513 42.8401C59.4759 43.0848 60.8906 43.2676 63.2925 43.3998C66.1303 43.5573 67.9669 43.9623 68.7994 44.6148C69.6319 45.2673 70.0453 46.6201 70.0453 48.6732C70.0453 51.2045 69.5588 52.8385 68.58 53.5782C67.6013 54.3207 65.4497 54.6892 62.1169 54.6892C59.1244 54.6892 57.1359 54.3264 56.1516 53.6007C55.17 52.8751 54.6806 51.407 54.6806 49.1907L54.6666 48.4932H58.185L58.1991 48.901C58.1991 50.2314 58.4297 51.0442 58.8966 51.3423C59.3606 51.6376 60.6291 51.7867 62.7047 51.7867C64.3219 51.7867 65.3541 51.6151 65.8041 51.2692C66.2484 50.926 66.4734 50.1301 66.4734 48.8842C66.4734 47.9617 66.3019 47.3485 65.9616 47.0476C65.6241 46.7467 64.89 46.561 63.765 46.4992L61.7681 46.3726C58.7559 46.1982 56.8294 45.7764 55.9913 45.1182C55.1531 44.4573 54.7369 43.0398 54.7369 40.8601C54.7369 38.6354 55.2403 37.156 56.25 36.4164C57.2569 35.6739 59.2763 35.3054 62.2969 35.3054C65.1656 35.3054 67.095 35.6429 68.0906 36.3235C69.0862 37.0014 69.5841 38.3289 69.5841 40.3004V41.0289Z" fill="white"/>
</g>
<defs>
<clipPath id="clip0_31_605">
<rect width="90" height="90" fill="white"/>
</clipPath>
</defs>
</svg>
