<svg width="90" height="90" viewBox="0 0 90 90" fill="none" xmlns="http://www.w3.org/2000/svg">
<path d="M56.0162 87.2569L56.8792 72.8775L59.262 68.8101C59.262 68.8101 53.8388 71.0286 44.7594 71.0286C35.6799 71.0286 30.3389 68.8511 30.3389 68.8511L33.0093 73.2881L33.954 87.2569C33.954 88.7544 38.8927 89.9683 44.9852 89.9683C51.0774 89.9683 56.0162 88.7544 56.0162 87.2569Z" fill="#D34A47"/>
<path d="M53.2942 20.1075L55.1054 12.9481L65.136 2.39359L62.4923 0.141846L51.8729 11.385L49.7698 19.9387C48.246 19.8871 46.6558 19.8596 45.0197 19.8596C33.8355 19.8596 24.7689 21.1343 24.7689 22.7062C24.7689 24.2784 33.8355 25.5529 45.0197 25.5529C56.2037 25.5529 65.2702 24.2784 65.2702 22.7062C65.2702 21.5486 60.353 20.5523 53.2942 20.1075Z" fill="#D34A47"/>
<path d="M52.2405 24.1172C52.2405 24.1172 51.8483 24.2051 50.6943 24.21C49.5401 24.2148 48.7205 24.2025 48.3941 23.9052C48.3063 23.8254 48.2583 23.6668 48.2588 23.5595C48.2597 23.3552 48.4047 23.2348 48.5895 23.1594L48.7643 23.4336C48.6882 23.4598 48.6448 23.4908 48.6447 23.5239C48.644 23.6791 49.8249 23.7853 50.728 23.7738C51.6314 23.7627 52.7228 23.6883 52.7238 23.5353C52.7238 23.4891 52.6413 23.4455 52.4977 23.4111L52.6716 23.1389C52.9057 23.2116 53.11 23.352 53.1095 23.595C53.1073 24.0081 52.5816 24.0709 52.2405 24.1172Z" fill="white"/>
<path d="M65.1163 2.41449C65.3685 2.12319 64.9857 1.37806 64.2614 0.750447C63.5368 0.12315 62.7449 -0.149394 62.4923 0.141913C62.2399 0.433221 62.6228 1.17834 63.3474 1.80564C64.0717 2.4331 64.8639 2.70596 65.1163 2.41449Z" fill="#D34A47"/>
<path d="M55.5338 52.1341C55.2961 49.8469 60.5366 46.5344 59.1917 46.4283C56.2964 46.5939 54.8555 49.8213 53.3988 53.2015C52.865 54.4404 51.0384 59.723 49.8404 59.0727C48.6428 58.4227 51.3932 54.0786 52.1641 51.4989C51.2745 52.1511 48.0124 54.6856 47.1718 52.312C45.8202 53.4599 42.9321 54.0818 43.2579 51.0665C42.5388 52.3402 40.925 54.1184 38.988 53.3795C36.4441 52.4093 40.462 44.306 41.4611 44.7148C42.4603 45.1235 41.2594 46.9694 40.9449 47.6863C40.2532 49.2638 39.4542 51.247 39.988 51.6529C40.9024 52.3484 43.391 49.0218 43.4463 48.9486C43.9117 48.3337 45.2377 44.3109 46.3064 44.7729C47.3751 45.2348 43.6408 50.5462 45.037 51.6003C45.3186 51.8131 46.4708 51.4691 47.1718 50.7108C47.6253 50.2203 47.4693 49.1337 48.981 45.5286C50.4927 41.9237 51.84 37.4342 52.8767 37.7762C53.9135 38.1181 53.059 40.4223 52.687 41.2813C50.9417 45.3129 47.9237 51.9733 49.347 51.4691C50.7703 50.9651 51.5115 50.9355 52.9052 49.3045C54.2989 47.6735 54.2347 44.9871 55.1636 45.0441C56.0929 45.1014 55.9369 45.9627 55.7116 46.6187C56.6259 45.5724 60.0456 43.3688 60.8712 45.5512C61.8491 48.135 55.9786 51.8671 57.4423 51.6768C58.8694 51.4912 61.1814 50.0269 62.1685 48.6955L64.8857 24.2673C64.8857 24.2673 62.1515 26.5301 44.7567 26.5301C27.3617 26.5301 24.9104 24.3144 24.9104 24.3144L27.2237 46.6115C28.4516 43.1217 31.3674 36.0629 35.9634 36.2998C38.0541 36.4076 40.845 40.4333 38.4543 40.5697C37.4424 40.6273 37.3397 38.5603 36.1414 38.2568C35.2767 38.0377 34.0728 38.7406 33.2947 39.5023C31.7431 41.0209 28.406 47.0122 28.8469 49.9992C29.4087 53.8074 34.1019 48.6759 34.896 47.1525C35.4552 46.0793 35.833 42.8997 37.0561 43.2333C38.2794 43.5669 36.9494 46.8483 36.0628 49.7494C35.0668 53.0071 34.5431 56.4435 33.2947 56.0481C32.0462 55.6532 34.0799 51.4477 34.0063 50.7108C32.8328 51.7935 30.6709 54.5345 27.9051 53.1778L29.3417 67.0242C29.3417 67.0242 33.1601 70.0411 44.6624 70.0411C56.1648 70.0411 60.1244 67.0712 60.1244 67.0712L61.9084 51.0339C60.4488 52.4551 55.8296 54.979 55.5338 52.1341Z" fill="#D34A47"/>
</svg>
