<svg width="90" height="90" viewBox="0 0 90 90" fill="none" xmlns="http://www.w3.org/2000/svg">
<g clip-path="url(#clip0_31_578)">
<path d="M44.9996 89.9994C69.8521 89.9994 89.9991 69.8524 89.9991 44.9998C89.9991 20.1472 69.8521 0.000244141 44.9996 0.000244141C20.147 0.000244141 0 20.1472 0 44.9998C0 69.8524 20.147 89.9994 44.9996 89.9994Z" fill="#FFD630"/>
<path d="M89.9806 45.7613L69.4231 25.2039L20.3036 53.5119L22.5292 55.9523L16.2819 65.1864L40.9001 89.8046C42.2473 89.9217 43.6334 89.9999 45.0194 89.9999C69.6181 89.9999 89.59 70.2625 89.9998 45.7807L89.9806 45.7613Z" fill="#F5BE18"/>
<path d="M22.4318 24.4426H67.5685C69.0133 24.4426 70.1845 25.614 70.1845 27.0586V52.0089C70.1845 53.4536 69.0131 54.6249 67.5685 54.6249H22.4318C20.9871 54.6249 19.8159 53.4534 19.8159 52.0089V27.0586C19.8155 25.614 20.9869 24.4426 22.4318 24.4426Z" fill="#E84F4F"/>
<path d="M69.4232 25.2039C69.8918 25.6725 70.1847 26.3362 70.1847 27.0584V52.0086C70.1847 53.4534 69.0133 54.6246 67.5687 54.6246H22.4319C21.5533 54.6246 20.7723 54.195 20.304 53.5117L69.4232 25.2039Z" fill="#D14747"/>
<path d="M22.2756 26.3948H67.7246V52.653H22.2756V26.3948Z" fill="#F7F7F8"/>
<path d="M19.601 55.6011H44.883H45.0978H70.3798C71.0435 55.6011 74.8896 61.2431 75.5339 62.024C75.9438 62.5121 75.6901 62.883 75.0457 62.8635L44.9806 62.7854L14.9154 62.8635C14.2712 62.8635 14.0173 62.5121 14.4273 62.024C15.0715 61.243 18.9176 55.6011 19.5814 55.6011H19.601Z" fill="#D14747"/>
<path d="M19.601 55.6011C18.9373 55.6011 15.0912 61.2431 14.4469 62.024C14.037 62.5121 14.2907 62.883 14.9351 62.8635L45.0003 62.7854L75.0654 62.8635C75.5145 62.8635 75.7682 62.6877 75.7487 62.4341L19.601 55.6011Z" fill="#E84F4F"/>
<path d="M17.0044 65.5186C16.3601 65.5186 14.4079 63.742 14.2907 62.8636L14.2516 62.4927C34.5163 62.4927 55.4839 62.4927 75.7485 62.4927L75.7095 62.8636C75.6119 63.7421 73.8548 65.5186 73.2106 65.5186C54.4295 65.5773 35.7852 65.5773 17.0044 65.5186Z" fill="#D14747"/>
<path d="M40.1389 59.9741H42.8134H47.8699H50.5444L51.384 62.1412H47.8699H42.8134H39.2995L40.1389 59.9741Z" fill="#EBECEC"/>
<path d="M31.2364 54.6248H34.5358V55.6009H31.2364V54.6248ZM55.4449 54.6248H58.7443V55.6009H55.4449V54.6248Z" fill="#004F59"/>
<path d="M26.9413 44.6097V34.497H28.9911V38.4797H32.9738V34.497H35.0236V44.6097H32.974V40.1976H28.9913V44.6097H26.9413ZM39.4166 44.6097V36.2149H36.4297V34.4968H44.4536V36.2149H41.4667V44.6097H39.4166ZM45.7419 44.6097V34.497H48.807L50.6226 41.3885L52.4186 34.497H55.4837V44.6097H53.59V36.6443L51.5988 44.6097H49.627L47.6358 36.6443V44.6097H45.7419ZM57.5924 44.6097V34.575H59.6422V42.8918H64.7182V44.6099H57.5924V44.6097Z" fill="#808080"/>
</g>
<defs>
<clipPath id="clip0_31_578">
<rect width="90" height="90" fill="white"/>
</clipPath>
</defs>
</svg>
