<svg width="90" height="90" viewBox="0 0 90 90" fill="none" xmlns="http://www.w3.org/2000/svg">
<path d="M84.375 5.625H5.625V84.375H84.375V5.625Z" fill="#F5DE19"/>
<path d="M58.5253 67.1485C59.1963 68.5114 60.2388 69.657 61.5325 70.4532C62.8263 71.2494 64.3188 71.6637 65.8378 71.6485C68.9034 71.6485 70.8638 70.1157 70.8638 67.9923C70.8638 65.461 68.85 64.5554 65.475 63.0788L63.6244 62.2857C58.2806 60.0104 54.7369 57.1613 54.7369 51.1369C54.7369 45.5879 58.9556 41.3607 65.5734 41.3607C67.7157 41.206 69.8562 41.6855 71.7277 42.7393C73.5993 43.7931 75.1192 45.3746 76.0978 47.2866L70.3125 50.9851C69.9357 50.037 69.2796 49.2259 68.4312 48.6593C67.5828 48.0928 66.5823 47.7974 65.5622 47.8126C65.1171 47.768 64.6677 47.8167 64.2425 47.9554C63.8173 48.0941 63.4256 48.3199 63.0925 48.6184C62.7594 48.9169 62.4921 49.2814 62.3076 49.6889C62.1232 50.0964 62.0257 50.5378 62.0213 50.9851C62.0213 53.2041 63.3966 54.1041 66.5719 55.4851L68.4225 56.2782C74.7113 58.9754 78.2663 61.7232 78.2663 67.9023C78.2663 74.5651 73.0322 78.2157 66.0038 78.2157C63.2652 78.3902 60.5347 77.7684 58.1417 76.4255C55.7488 75.0825 53.7955 73.0757 52.5178 70.6473L58.5253 67.1485ZM32.3831 67.7898C33.5447 69.8513 34.6022 71.5951 37.1447 71.5951C39.5747 71.5951 41.1103 70.6444 41.1103 66.946V41.7826H48.51V67.0444C48.51 74.7057 44.01 78.1932 37.4597 78.1932C35.1443 78.3198 32.8448 77.7427 30.8635 76.538C28.8822 75.3332 27.3118 73.5571 26.3587 71.4432L32.3831 67.7898Z" fill="black"/>
</svg>
