<svg width="90" height="90" viewBox="0 0 90 90" fill="none" xmlns="http://www.w3.org/2000/svg">
<path fill-rule="evenodd" clip-rule="evenodd" d="M45 5.625C52.7876 5.625 60.4004 7.9343 66.8756 12.2609C73.3508 16.5875 78.3976 22.737 81.3778 29.9318C84.358 37.1267 85.1377 45.0437 83.6184 52.6817C82.0991 60.3197 78.349 67.3356 72.8423 72.8423C67.3356 78.349 60.3197 82.0991 52.6817 83.6184C45.0437 85.1377 37.1267 84.358 29.9318 81.3778C22.737 78.3976 16.5875 73.3508 12.2609 66.8756C7.9343 60.4004 5.625 52.7876 5.625 45C5.625 34.5571 9.77343 24.5419 17.1577 17.1577C24.5419 9.77343 34.5571 5.625 45 5.625Z" fill="#CC6699"/>
<path d="M69.6994 22.4774C67.9162 15.4855 56.3203 13.1961 45.3459 17.083C38.473 19.3925 32.1231 23.0348 26.6597 27.8014C20.6156 33.4546 19.6509 38.3764 20.0475 40.4324C21.4537 47.6886 31.3903 52.4305 35.4769 55.9489V55.9686C34.2731 56.5621 25.4531 61.0311 23.3831 65.5874C21.2062 70.4024 23.7291 73.8561 25.4025 74.3202C27.915 74.9251 30.5537 74.7282 32.9486 73.7572C35.3435 72.7863 37.3744 71.0899 38.7562 68.9061C39.8983 67.1368 40.6128 65.126 40.8432 63.0328C41.0736 60.9396 40.8136 58.8215 40.0837 56.8461C42.0521 56.346 44.0982 56.2285 46.1109 56.5002C53.0184 57.3074 54.3741 61.6189 54.1153 63.4246C53.9936 64.0673 53.7349 64.6763 53.3569 65.2101C52.9788 65.744 52.4902 66.1901 51.9244 66.5183C51.4406 66.8193 51.2916 66.9205 51.3337 67.1455C51.3928 67.4689 51.615 67.4577 52.0284 67.3874C53.0665 67.0605 53.9811 66.4267 54.6518 65.5697C55.3226 64.7127 55.718 63.6726 55.7859 62.5864C55.9519 58.3677 51.8991 53.6258 44.7216 53.7468C42.6369 53.6872 40.5568 53.9723 38.565 54.5905C38.4666 54.478 38.3653 54.3655 38.2612 54.253C33.8231 49.5196 25.6219 46.1699 25.9678 39.8052C26.0944 37.4905 26.8987 31.3986 41.7178 24.0074C53.8678 17.9521 63.5934 19.6199 65.2753 23.3127C67.6772 28.5889 60.0778 38.3905 47.4609 39.8052C46.0664 40.0883 44.6261 40.0538 43.2467 39.7042C41.8674 39.3546 40.5845 38.6989 39.4931 37.7858C38.8294 37.0546 38.7309 37.0236 38.4834 37.1586C38.0812 37.3808 38.3372 38.0277 38.4834 38.4102C38.9665 39.2809 39.6187 40.0463 40.4015 40.6616C41.1844 41.2769 42.0823 41.7297 43.0425 41.9933C48.0031 43.0712 53.1772 42.5595 57.8306 40.5308C65.4834 37.5805 71.4516 29.3539 69.6994 22.4774ZM37.1756 58.1146C37.7342 60.0403 37.7058 62.0888 37.0941 63.9983C37.0284 64.1971 36.9562 64.3939 36.8775 64.5889C36.7987 64.7839 36.7134 64.9714 36.6216 65.1514C36.1482 66.1199 35.5351 67.0135 34.8019 67.8036C32.5153 70.2983 29.3175 71.2433 27.9478 70.4474C26.4684 69.5896 27.2081 66.0711 29.8603 63.2671C31.8982 61.2519 34.2477 59.5785 36.8184 58.3114L37.1756 58.1146Z" fill="white"/>
</svg>
