<svg width="31" height="31" viewBox="0 0 31 31" fill="none" xmlns="http://www.w3.org/2000/svg">
<path d="M4.88929 4.31618C10.9032 -1.38123 20.3973 -1.12469 26.0948 4.8893C31.7922 10.9032 31.5356 20.3974 25.5216 26.0948C19.5076 31.7922 10.0136 31.5356 4.31617 25.5216C-1.3813 19.5077 -1.1247 10.0137 4.88929 4.31618ZM10.0474 9.76083C9.63391 10.1525 9.58327 10.7835 9.90681 11.2334L10.0044 11.3512L13.6151 15.1625L9.8038 18.7732C9.35275 19.2005 9.33352 19.9125 9.76082 20.3636C10.1525 20.777 10.7835 20.8277 11.2334 20.5041L11.3512 20.4065L15.1625 16.7959L18.7731 20.6071C19.2004 21.0582 19.9125 21.0774 20.3635 20.6501C20.777 20.2584 20.8276 19.6274 20.5041 19.1776L20.4065 19.0597L16.7959 15.2485L20.6071 11.6378C21.0582 11.2105 21.0774 10.4984 20.6501 10.0474C20.2584 9.63392 19.6274 9.58334 19.1776 9.90679L19.0597 10.0044L15.2484 13.6151L11.6378 9.80381C11.2105 9.35277 10.4984 9.33353 10.0474 9.76083Z" fill="white"/>
</svg>
