<?xml version="1.0" standalone="no"?>
<!DOCTYPE svg PUBLIC "-//W3C//DTD SVG 20010904//EN"
 "http://www.w3.org/TR/2001/REC-SVG-20010904/DTD/svg10.dtd">
<svg version="1.0" xmlns="http://www.w3.org/2000/svg"
 width="512.000000pt" height="512.000000pt" viewBox="0 0 512.000000 512.000000"
 preserveAspectRatio="xMidYMid meet">
<metadata>
Created by potrace 1.14, written by Peter Selinger 2001-2017
</metadata>
<g transform="translate(0.000000,512.000000) scale(0.100000,-0.100000)"
fill="#000000" stroke="none">
<path d="M2329 5076 c-2 -2 -33 -6 -69 -10 -36 -3 -77 -8 -92 -11 -16 -3 -40
-7 -55 -9 -82 -12 -211 -40 -291 -65 -18 -5 -33 -10 -35 -10 -13 0 -238 -82
-294 -107 -28 -13 -56 -24 -62 -24 -5 0 -11 -3 -13 -7 -1 -5 -30 -21 -63 -37
-33 -16 -83 -44 -112 -63 -28 -18 -54 -33 -57 -33 -9 0 -179 -121 -246 -175
-59 -48 -84 -70 -145 -124 -127 -113 -315 -344 -427 -526 -77 -124 -223 -440
-243 -525 -2 -8 -15 -53 -29 -100 -14 -47 -27 -96 -29 -110 -3 -14 -8 -36 -11
-50 -3 -14 -8 -36 -10 -50 -2 -14 -7 -36 -10 -50 -37 -163 -43 -600 -11 -785
2 -16 7 -43 9 -60 6 -41 34 -173 45 -212 5 -18 7 -33 4 -33 -3 0 -1 -6 4 -12
6 -7 14 -30 17 -52 4 -21 11 -46 16 -55 5 -9 17 -38 25 -66 27 -82 75 -194
133 -305 30 -58 59 -115 66 -127 6 -13 14 -23 19 -23 4 0 7 -5 7 -11 0 -20 99
-161 218 -312 41 -51 248 -257 304 -302 34 -27 70 -57 78 -65 21 -20 215 -152
265 -180 296 -168 530 -253 860 -314 17 -4 50 -8 75 -11 25 -3 77 -10 115 -14
68 -9 544 -7 595 2 14 3 46 8 70 11 25 3 56 8 70 11 14 3 41 8 60 11 121 21
376 96 480 142 166 72 419 209 457 248 7 7 22 16 33 19 11 3 20 11 20 16 0 5
7 9 15 9 8 0 15 4 15 9 0 4 17 20 38 34 113 75 398 362 465 468 11 16 23 29
28 29 5 0 9 6 9 14 0 8 3 16 8 18 7 3 50 66 104 153 139 223 273 564 313 794
3 19 7 37 9 40 3 5 9 42 22 131 27 196 26 582 -2 711 -3 13 -7 38 -9 54 -6 53
-36 188 -56 259 -12 38 -22 76 -24 85 -12 54 -94 256 -151 371 -62 126 -195
339 -216 348 -5 2 -8 8 -8 14 0 42 -350 400 -500 512 -58 43 -113 84 -123 92
-9 8 -19 14 -20 14 -2 0 -52 29 -112 65 -170 101 -480 231 -617 259 -13 3 -38
9 -56 15 -18 5 -35 10 -37 10 -6 0 -73 12 -100 18 -11 2 -49 8 -85 14 -36 5
-78 12 -95 15 -32 6 -550 15 -556 10z"/>
</g>
</svg>
