<svg width="15" height="24" viewBox="0 0 15 24" fill="none" xmlns="http://www.w3.org/2000/svg">
<g clip-path="url(#clip0_31_700)">
<path fill-rule="evenodd" clip-rule="evenodd" d="M6.67236 0.0291803C2.81989 0.525315 -0.00731708 3.63809 1.42253e-05 7.37538C0.00263637 8.69802 0.329388 9.64541 1.49608 11.7133C1.78987 12.2341 2.10276 12.8036 2.19127 12.9789C2.53124 13.6517 3.02929 15.48 3.1619 16.5418C3.26405 17.3597 3.6266 17.9738 4.23944 18.367C4.82225 18.7409 4.91402 18.7506 7.66364 18.7318L10.0997 18.7151L10.4731 18.5334C11.1414 18.208 11.6645 17.5471 11.7807 16.8813C12.2533 14.1741 12.4324 13.6278 13.4256 11.8625C14.6853 9.62347 14.9938 8.74401 14.9999 7.37453C15.018 3.32201 11.5811 -0.0495872 7.48314 0.000552108C7.12551 0.00490743 6.76066 0.017814 6.67236 0.0291803ZM8.70378 0.874378C11.3421 1.30423 13.5544 3.44056 14.1106 6.09566C14.4649 7.78701 14.1276 9.11671 12.738 11.5054C11.832 13.0629 11.3005 14.6257 11.0816 16.3753C10.9905 17.1036 10.6854 17.575 10.1262 17.8514C9.74482 18.04 5.25993 18.0398 4.87432 17.8511C4.32367 17.5819 4.01281 17.1007 3.92237 16.3775C3.69676 14.5742 3.20802 13.1491 2.22707 11.4341C0.854299 9.03407 0.537715 7.77023 0.891116 6.10065C1.64629 2.53285 5.02223 0.274512 8.70378 0.874378ZM3.88903 19.9109C3.83541 19.9697 3.79159 20.0889 3.79159 20.1758C3.79159 20.5699 3.56913 20.5476 7.50182 20.5476C11.4345 20.5476 11.212 20.5699 11.212 20.1758C11.212 19.7817 11.4345 19.804 7.50182 19.804C4.047 19.804 3.98488 19.8058 3.88903 19.9109ZM4.42417 21.5043C4.37055 21.5631 4.32672 21.6823 4.32672 21.7692C4.32672 22.1592 4.17105 22.141 7.50182 22.141C10.8326 22.141 10.6769 22.1592 10.6769 21.7692C10.6769 21.3792 10.8326 21.3974 7.50182 21.3974C4.58326 21.3974 4.51963 21.3996 4.42417 21.5043ZM4.9593 23.3633C4.90568 23.4221 4.86185 23.5413 4.86185 23.6282C4.86185 24.0125 4.77238 24 7.50182 24C10.2313 24 10.1418 24.0125 10.1418 23.6282C10.1418 23.2438 10.2313 23.2564 7.50182 23.2564C5.11952 23.2564 5.05428 23.2591 4.9593 23.3633Z" fill="#1F1F1F"/>
</g>
<defs>
<clipPath id="clip0_31_700">
<rect width="15" height="24" fill="white"/>
</clipPath>
</defs>
</svg>
