<svg width="16" height="14" viewBox="0 0 16 14" fill="none" xmlns="http://www.w3.org/2000/svg">
<path d="M0 2.21051C0 1.10594 0.895431 0.21051 2 0.21051H8V7.94735H0V2.21051Z" fill="#323EA6"/>
<rect y="7.94736" width="16" height="1.10526" fill="white"/>
<path d="M8 0.21051H14.8947C15.5052 0.21051 16 0.705354 16 1.31577H8V0.21051Z" fill="#AA2424"/>
<rect x="8" y="2.42105" width="8" height="1.10526" fill="#AA2424"/>
<rect x="8" y="4.63159" width="8" height="1.10526" fill="#AA2424"/>
<rect x="8" y="6.8421" width="8" height="1.10526" fill="#AA2424"/>
<rect y="11.2632" width="16" height="1.10526" fill="#AA2424"/>
<path d="M0 9.05264H16V10.1579H0V9.05264Z" fill="#AA2424"/>
<rect y="10.1579" width="16" height="1.10526" fill="white"/>
<path d="M8 1.3158H16V2.42106H8V1.3158Z" fill="white"/>
<path d="M8 1.3158H16V2.42106H8V1.3158Z" fill="white"/>
<path d="M8 1.3158H16V2.42106H8V1.3158Z" fill="white"/>
<rect x="8" y="3.52631" width="8" height="1.10526" fill="white"/>
<rect x="8" y="5.73685" width="8" height="1.10526" fill="white"/>
<path d="M0 12.3684H16C16 12.9788 15.5052 13.4737 14.8947 13.4737H1.10526C0.494843 13.4737 0 12.9788 0 12.3684Z" fill="white"/>
<path d="M2.5 0.21051L2.61226 0.592369H2.97553L2.68164 0.828371L2.79389 1.21023L2.5 0.974228L2.20611 1.21023L2.31836 0.828371L2.02447 0.592369H2.38774L2.5 0.21051Z" fill="#D9D9D9"/>
<path d="M2.5 4.63159L2.61226 5.01345H2.97553L2.68164 5.24945L2.79389 5.63131L2.5 5.39531L2.20611 5.63131L2.31836 5.24945L2.02447 5.01345H2.38774L2.5 4.63159Z" fill="#D9D9D9"/>
<path d="M6.5 4.63159L6.61226 5.01345H6.97553L6.68164 5.24945L6.79389 5.63131L6.5 5.39531L6.20611 5.63131L6.31836 5.24945L6.02447 5.01345H6.38774L6.5 4.63159Z" fill="#D9D9D9"/>
<path d="M3.5 5.73685L3.61226 6.11871H3.97553L3.68164 6.35471L3.79389 6.73657L3.5 6.50056L3.20611 6.73657L3.31836 6.35471L3.02447 6.11871H3.38774L3.5 5.73685Z" fill="#D9D9D9"/>
<path d="M7.5 5.73685L7.61226 6.11871H7.97553L7.68164 6.35471L7.79389 6.73657L7.5 6.50056L7.20611 6.73657L7.31836 6.35471L7.02447 6.11871H7.38774L7.5 5.73685Z" fill="#D9D9D9"/>
<path d="M5.5 5.73685L5.61226 6.11871H5.97553L5.68164 6.35471L5.79389 6.73657L5.5 6.50056L5.20611 6.73657L5.31836 6.35471L5.02447 6.11871H5.38774L5.5 5.73685Z" fill="#D9D9D9"/>
<path d="M4.5 4.63159L4.61226 5.01345H4.97553L4.68164 5.24945L4.79389 5.63131L4.5 5.39531L4.20611 5.63131L4.31836 5.24945L4.02447 5.01345H4.38774L4.5 4.63159Z" fill="#D9D9D9"/>
<path d="M1.5 5.73685L1.61226 6.11871H1.97553L1.68164 6.35471L1.79389 6.73657L1.5 6.50056L1.20611 6.73657L1.31836 6.35471L1.02447 6.11871H1.38774L1.5 5.73685Z" fill="#D9D9D9"/>
<path d="M6.5 6.8421L6.61226 7.22396H6.97553L6.68164 7.45996L6.79389 7.84182L6.5 7.60582L6.20611 7.84182L6.31836 7.45996L6.02447 7.22396H6.38774L6.5 6.8421Z" fill="#D9D9D9"/>
<path d="M3.5 1.3158L3.61226 1.69765H3.97553L3.68164 1.93366L3.79389 2.31552L3.5 2.07951L3.20611 2.31552L3.31836 1.93366L3.02447 1.69765H3.38774L3.5 1.3158Z" fill="#D9D9D9"/>
<path d="M4.5 6.8421L4.61226 7.22396H4.97553L4.68164 7.45996L4.79389 7.84182L4.5 7.60582L4.20611 7.84182L4.31836 7.45996L4.02447 7.22396H4.38774L4.5 6.8421Z" fill="#D9D9D9"/>
<path d="M2.5 6.8421L2.61226 7.22396H2.97553L2.68164 7.45996L2.79389 7.84182L2.5 7.60582L2.20611 7.84182L2.31836 7.45996L2.02447 7.22396H2.38774L2.5 6.8421Z" fill="#D9D9D9"/>
<path d="M7.5 1.3158L7.61226 1.69765H7.97553L7.68164 1.93366L7.79389 2.31552L7.5 2.07951L7.20611 2.31552L7.31836 1.93366L7.02447 1.69765H7.38774L7.5 1.3158Z" fill="#D9D9D9"/>
<path d="M7.5 3.52631L7.61226 3.90817H7.97553L7.68164 4.14417L7.79389 4.52603L7.5 4.29002L7.20611 4.52603L7.31836 4.14417L7.02447 3.90817H7.38774L7.5 3.52631Z" fill="#D9D9D9"/>
<path d="M0.5 2.42105L0.612257 2.80291H0.975528L0.681636 3.03891L0.793893 3.42077L0.5 3.18477L0.206107 3.42077L0.318364 3.03891L0.0244717 2.80291H0.387743L0.5 2.42105Z" fill="#D9D9D9"/>
<path d="M4.5 2.42105L4.61226 2.80291H4.97553L4.68164 3.03891L4.79389 3.42077L4.5 3.18477L4.20611 3.42077L4.31836 3.03891L4.02447 2.80291H4.38774L4.5 2.42105Z" fill="#D9D9D9"/>
<path d="M0.5 4.63159L0.612257 5.01345H0.975528L0.681636 5.24945L0.793893 5.63131L0.5 5.39531L0.206107 5.63131L0.318364 5.24945L0.0244717 5.01345H0.387743L0.5 4.63159Z" fill="#D9D9D9"/>
<path d="M0.5 6.8421L0.612257 7.22396H0.975528L0.681636 7.45996L0.793893 7.84182L0.5 7.60582L0.206107 7.84182L0.318364 7.45996L0.0244717 7.22396H0.387743L0.5 6.8421Z" fill="#D9D9D9"/>
<path d="M5.5 1.3158L5.61226 1.69765H5.97553L5.68164 1.93366L5.79389 2.31552L5.5 2.07951L5.20611 2.31552L5.31836 1.93366L5.02447 1.69765H5.38774L5.5 1.3158Z" fill="#D9D9D9"/>
<path d="M1.5 3.52631L1.61226 3.90817H1.97553L1.68164 4.14417L1.79389 4.52603L1.5 4.29002L1.20611 4.52603L1.31836 4.14417L1.02447 3.90817H1.38774L1.5 3.52631Z" fill="#D9D9D9"/>
<path d="M3.5 3.52631L3.61226 3.90817H3.97553L3.68164 4.14417L3.79389 4.52603L3.5 4.29002L3.20611 4.52603L3.31836 4.14417L3.02447 3.90817H3.38774L3.5 3.52631Z" fill="#D9D9D9"/>
<path d="M5.5 3.52631L5.61226 3.90817H5.97553L5.68164 4.14417L5.79389 4.52603L5.5 4.29002L5.20611 4.52603L5.31836 4.14417L5.02447 3.90817H5.38774L5.5 3.52631Z" fill="#D9D9D9"/>
<path d="M2.5 2.42105L2.61226 2.80291H2.97553L2.68164 3.03891L2.79389 3.42077L2.5 3.18477L2.20611 3.42077L2.31836 3.03891L2.02447 2.80291H2.38774L2.5 2.42105Z" fill="#D9D9D9"/>
<path d="M6.5 2.42105L6.61226 2.80291H6.97553L6.68164 3.03891L6.79389 3.42077L6.5 3.18477L6.20611 3.42077L6.31836 3.03891L6.02447 2.80291H6.38774L6.5 2.42105Z" fill="#D9D9D9"/>
<path d="M6.5 0.21051L6.61226 0.592369H6.97553L6.68164 0.828371L6.79389 1.21023L6.5 0.974228L6.20611 1.21023L6.31836 0.828371L6.02447 0.592369H6.38774L6.5 0.21051Z" fill="#D9D9D9"/>
<path d="M4.5 0.21051L4.61226 0.592369H4.97553L4.68164 0.828371L4.79389 1.21023L4.5 0.974228L4.20611 1.21023L4.31836 0.828371L4.02447 0.592369H4.38774L4.5 0.21051Z" fill="#D9D9D9"/>
<path d="M1.5 1.3158L1.61226 1.69765H1.97553L1.68164 1.93366L1.79389 2.31552L1.5 2.07951L1.20611 2.31552L1.31836 1.93366L1.02447 1.69765H1.38774L1.5 1.3158Z" fill="#D9D9D9"/>
</svg>
