<svg width="37" height="37" viewBox="0 0 37 37" fill="none" xmlns="http://www.w3.org/2000/svg">
<g clip-path="url(#clip0_23_329)">
<path d="M36.9892 0H0.0108398C0.00485316 0 0 0.00485316 0 0.0108398V36.9892C0 36.9951 0.00485316 37 0.0108398 37H36.9892C36.9951 37 37 36.9951 37 36.9892V0.0108398C37 0.00485316 36.9951 0 36.9892 0Z" fill="#37AEE2"/>
<path d="M14.3809 29.1953C13.5859 29.1953 13.6582 28.9062 13.4414 28.1836L11.1289 20.5957L28.834 10.1895" fill="#C8DAEA"/>
<path d="M14.3809 29.1953C14.8867 29.1953 15.1758 28.9062 15.5371 28.6172L18.7891 25.5098L14.7422 23.0527" fill="#A9C9DD"/>
<path d="M14.7422 23.0527L24.498 30.207C25.5098 30.8574 26.3769 30.4961 26.666 29.1953L30.6406 10.5508C31.0019 8.96094 29.9902 8.23828 28.9062 8.74414L5.70897 17.7051C4.1914 18.2832 4.1914 19.2227 5.41991 19.584L11.418 21.4629L25.1484 12.7188C25.7988 12.3574 26.3769 12.502 25.9433 13.0078" fill="#F6FBFE"/>
</g>
<defs>
<clipPath id="clip0_23_329">
<rect width="37" height="37" fill="white"/>
</clipPath>
</defs>
</svg>
