<svg width="37" height="37" viewBox="0 0 37 37" fill="none" xmlns="http://www.w3.org/2000/svg">
<g clip-path="url(#clip0_23_342)">
<path d="M36.9892 0H0.0108398C0.00485316 0 0 0.00485316 0 0.0108398V36.9892C0 36.9951 0.00485316 37 0.0108398 37H36.9892C36.9951 37 37 36.9951 37 36.9892V0.0108398C37 0.00485316 36.9951 0 36.9892 0Z" fill="#5281B8"/>
<path d="M19.8008 26.2324C20.1621 26.1602 20.8125 26.0156 20.8125 25.1484C20.8125 25.1484 20.7402 22.9805 21.752 22.6914C22.7637 22.4023 24.0645 24.7871 25.4375 25.7266C26.4492 26.377 27.2441 26.3047 27.2441 26.3047L30.9297 26.2324C30.9297 26.2324 32.8086 26.0879 31.9414 24.5703C31.8691 24.4258 31.291 23.4863 29.1231 21.5352C26.8828 19.3672 27.2441 19.7285 29.918 16.043C31.5801 13.8027 32.3027 12.4297 32.0859 11.9238C31.7969 11.418 30.6406 11.4902 30.6406 11.4902H26.5215C26.0879 11.4902 25.8711 11.5625 25.6543 11.9238C25.6543 11.9238 25.0039 13.7305 24.1367 15.1758C22.3301 18.2832 21.6074 18.4277 21.2461 18.2109C20.5957 17.8496 20.7402 16.4766 20.7402 15.5371C20.7402 12.2852 21.2461 11.1289 19.8008 10.8398C18.8613 10.6953 15.5371 10.5508 14.5254 11.0566C14.0195 11.3457 13.7305 11.8516 13.9473 11.9238C14.1641 11.9238 14.8145 11.9961 15.1758 12.4297C15.7539 13.3691 15.8262 17.8496 15.0313 18.2832C13.9473 19.0781 11.2012 13.8027 10.5508 12.0684C10.4063 11.6348 10.1895 11.5625 9.6836 11.418H5.70899C5.2754 11.418 4.62501 11.4902 4.91407 12.3574C6.86524 16.4043 10.9121 26.3047 18.2109 26.2324H19.8008Z" fill="white"/>
</g>
<defs>
<clipPath id="clip0_23_342">
<rect width="37" height="37" fill="white"/>
</clipPath>
</defs>
</svg>
