<svg width="37" height="37" viewBox="0 0 37 37" fill="none" xmlns="http://www.w3.org/2000/svg">
<g clip-path="url(#clip0_23_338)">
<path d="M36.9892 0H0.0108398C0.00485316 0 0 0.00485316 0 0.0108398V36.9892C0 36.9951 0.00485316 37 0.0108398 37H36.9892C36.9951 37 37 36.9951 37 36.9892V0.0108398C37 0.00485316 36.9951 0 36.9892 0Z" fill="#25D366"/>
<path d="M8.88866 28.4004L9.90037 23.7031C8.60002 21.6521 8.09275 19.1971 8.47373 16.7987C8.85472 14.4002 10.0978 12.2233 11.9697 10.6762C13.8416 9.12905 16.2137 8.31815 18.641 8.39561C21.0682 8.47306 23.3838 9.43354 25.1533 11.0968C26.9227 12.7601 28.0245 15.0119 28.2518 17.4298C28.4791 19.8476 27.8163 22.2653 26.3879 24.2292C24.9594 26.1932 22.8634 27.5684 20.4931 28.0969C18.1228 28.6253 15.6411 28.2707 13.5137 27.0996L8.88866 28.4004Z" fill="#25D366" stroke="white" stroke-width="2"/>
<path d="M22.2578 19.7285C22.041 19.584 21.8242 19.5117 21.6074 19.8008L20.7402 20.957C20.5234 21.1016 20.3789 21.1738 20.0898 21.0293C19.0058 20.4512 17.4883 19.8008 16.1875 17.6328C16.1152 17.3438 16.2597 17.1992 16.4043 17.0547L17.0547 16.043C17.1992 15.8984 17.1269 15.7539 17.0547 15.6094L16.1875 13.5137C15.9707 12.9355 15.7539 13.0078 15.5371 13.0078H14.959C14.8144 13.0078 14.5254 13.0801 14.2363 13.3691C12.6465 14.959 13.2969 17.1992 14.4531 18.6445C14.6699 18.9336 16.1152 21.5352 19.2226 22.9082C21.5351 23.9199 22.041 23.7754 22.6914 23.6309C23.4863 23.5586 24.2812 22.9082 24.6426 22.2578C24.7148 22.041 25.0761 21.1016 24.7871 20.957" fill="white"/>
</g>
<defs>
<clipPath id="clip0_23_338">
<rect width="37" height="37" fill="white"/>
</clipPath>
</defs>
</svg>
